<svg width="136" height="103" viewBox="0 0 136 103" fill="none" xmlns="http://www.w3.org/2000/svg">
<circle cx="49.1635" cy="53.7019" r="49.1635" fill="#2253FF"/>
<path d="M127.56 69.5371V58.655L36.4504 46.2042V57.0864L64.7995 73.4422L68.9334 75.8441L92.9036 89.6837L127.56 69.5371Z" fill="white"/>
<path d="M92.9031 90.5006C92.7561 90.5006 92.6254 90.468 92.4947 90.3863L36.0415 57.7889C35.7965 57.6418 35.6331 57.3804 35.6331 57.0863V46.2041C35.6331 45.9754 35.7311 45.7466 35.9108 45.5832C36.0906 45.4198 36.3193 45.3545 36.5644 45.3872L127.657 57.8379C128.066 57.8869 128.36 58.2464 128.36 58.6549V69.537C128.36 69.8311 128.213 70.0926 127.951 70.2396L93.3116 90.3863C93.1809 90.4516 93.0339 90.5006 92.9031 90.5006ZM37.267 56.6124L92.8868 88.7196L126.742 69.0632V59.3575L37.267 47.1355V56.6124Z" fill="#0C5AE5"/>
<path d="M127.56 58.6551L103.59 44.8155L95.0114 39.8646L71.1066 26.0577L36.4504 46.2044L64.7995 62.5603L68.9334 64.9622L92.9036 78.7854L127.56 58.6551Z" fill="white"/>
<path d="M92.9034 79.6022C92.7563 79.6022 92.6256 79.5695 92.4949 79.4878L36.0418 46.9068C35.7967 46.7597 35.6333 46.4983 35.6333 46.2042C35.6333 45.9101 35.7804 45.6487 36.0418 45.5016L70.698 25.355C70.943 25.2079 71.2698 25.2079 71.5149 25.355L127.952 57.936C128.197 58.083 128.36 58.3445 128.36 58.6386C128.36 58.9327 128.213 59.1941 127.952 59.3412L93.3119 79.5042C93.1812 79.5695 93.0341 79.6022 92.9034 79.6022ZM38.0842 46.2042L92.887 77.8539L125.926 58.6549L71.1064 27.0052L38.0842 46.2042Z" fill="#0C5AE5"/>
<path d="M60.3538 60.0112V70.8933L68.932 75.8442V64.962L60.3538 60.0112Z" fill="#5F87ED"/>
<path d="M68.9323 76.6612C68.7853 76.6612 68.6546 76.6285 68.5239 76.5468L59.9456 71.5959C59.7005 71.4488 59.5371 71.1874 59.5371 70.8933V60.0112C59.5371 59.7171 59.7005 59.4556 59.9456 59.3086C60.1907 59.1615 60.5175 59.1615 60.7626 59.3086L69.3408 64.2594C69.5859 64.4065 69.7493 64.6679 69.7493 64.962V75.8442C69.7493 76.1383 69.5859 76.3997 69.3408 76.5468C69.2101 76.6285 69.0794 76.6612 68.9323 76.6612ZM61.1711 70.4195L68.1154 74.4226V65.4196L61.1711 61.4164V70.4195Z" fill="#0C5AE5"/>
<path d="M92.9028 78.7853V89.6838L127.559 69.5371V58.655L92.9028 78.7853Z" fill="#D4DDFC"/>
<path d="M92.9029 90.5006C92.7559 90.5006 92.6251 90.4679 92.4944 90.3862C92.233 90.2391 92.0859 89.9777 92.0859 89.6836V78.8015C92.0859 78.5073 92.233 78.2459 92.4944 78.0989L127.151 57.9522C127.396 57.8052 127.706 57.8052 127.968 57.9522C128.229 58.0993 128.376 58.3607 128.376 58.6548V69.5369C128.376 69.8311 128.229 70.0925 127.968 70.2395L93.3114 90.3862C93.1807 90.4516 93.0336 90.5006 92.9029 90.5006ZM93.7199 79.259V88.2621L126.742 69.0631V60.0763L93.7199 79.259Z" fill="#0C5AE5"/>
<path d="M114.651 60.387C112.478 59.1289 112.462 57.0864 114.618 55.8283L99.5697 47.1357L75.4362 33.198C73.2793 34.4562 69.75 34.4562 67.5768 33.198L48.7864 44.1455C50.9595 45.4037 50.9759 47.4461 48.8191 48.7043L72.9526 62.6419L88.0013 71.3345C90.1581 70.0764 93.6874 70.0764 95.8606 71.3345C96.0567 71.4489 96.2364 71.5633 96.3998 71.694L115.288 60.7138C115.06 60.5994 114.847 60.5014 114.651 60.387Z" fill="#D4DDFC"/>
<path d="M96.3835 72.4944C96.2038 72.4944 96.0241 72.4291 95.877 72.3147C95.7463 72.2167 95.5992 72.1186 95.4358 72.0206C93.5241 70.9095 90.2889 70.9095 88.3935 72.0206C88.1484 72.1676 87.8216 72.1676 87.5765 72.0206L48.3943 49.4067C48.1492 49.2596 47.9858 48.9818 47.9858 48.6877C47.9858 48.3936 48.1329 48.1322 48.3943 47.9851C49.1623 47.544 49.6034 46.9721 49.6034 46.4165C49.6034 45.861 49.1459 45.2891 48.378 44.8316C48.1329 44.6845 47.9695 44.4231 47.9695 44.129C47.9695 43.8349 48.1165 43.5735 48.378 43.4264L67.1848 32.4952C67.4299 32.3482 67.7567 32.3482 68.0018 32.4952C69.9135 33.6063 73.1487 33.59 75.0441 32.4952C75.2892 32.3482 75.616 32.3482 75.8611 32.4952L115.043 55.1092C115.288 55.2562 115.452 55.5177 115.452 55.8118C115.452 56.1059 115.305 56.3673 115.043 56.5144C114.275 56.9555 113.834 57.5274 113.834 58.0666C113.834 58.6222 114.275 59.194 115.06 59.6516C115.223 59.7496 115.403 59.8313 115.599 59.913C115.877 60.0437 116.073 60.3051 116.089 60.6156C116.105 60.926 115.942 61.2202 115.681 61.3672L96.792 72.3801C96.6613 72.4454 96.5306 72.4944 96.3835 72.4944ZM91.9065 69.5533C93.4751 69.5533 95.0274 69.9128 96.2528 70.6154C96.3018 70.6481 96.3672 70.6807 96.4162 70.7134L113.638 60.6973C112.69 59.9783 112.184 59.0797 112.184 58.0993C112.184 57.2987 112.511 56.5634 113.148 55.9261L75.4363 34.1455C73.1487 35.2566 69.9135 35.2566 67.6096 34.1455L50.2407 44.227C50.8779 44.8643 51.2374 45.6159 51.2374 46.4165C51.2374 47.2172 50.8943 47.9524 50.2734 48.5897L88.0014 70.3703C89.1451 69.8311 90.5176 69.5533 91.9065 69.5533Z" fill="#0C5AE5"/>
<path d="M91.5142 46.9067C87.5437 44.6192 80.0766 45.2401 74.7989 48.2956C69.5376 51.3511 68.4755 55.6974 72.446 57.9849C76.4002 60.2725 83.8837 59.6516 89.1613 56.5797C94.4227 53.5242 95.4684 49.1943 91.5142 46.9067Z" fill="white"/>
<path d="M78.655 60.1909C76.1223 60.1909 73.7858 59.7007 72.0375 58.6876C70.2238 57.6419 69.2271 56.106 69.2271 54.3904C69.2271 51.9884 71.1061 49.5048 74.3903 47.5931C79.9621 44.3579 87.6581 43.737 91.9227 46.2042C93.7364 47.25 94.7331 48.7696 94.7331 50.5015C94.7331 52.9035 92.854 55.3871 89.5698 57.2988C86.2855 59.1942 82.266 60.1909 78.655 60.1909ZM85.3215 46.3186C81.9882 46.3186 78.2301 47.25 75.2073 48.9983C72.4786 50.5832 70.8447 52.593 70.861 54.374C70.861 55.8119 71.9394 56.7432 72.8544 57.2661C76.5798 59.4229 83.7202 58.7857 88.7528 55.8609C91.4815 54.276 93.0991 52.2662 93.0991 50.4852C93.0991 49.0473 92.0207 48.116 91.1057 47.5931C89.6025 46.7434 87.56 46.3186 85.3215 46.3186Z" fill="#0C5AE5"/>
<path d="M95.0099 39.8646L91.0067 42.2011L84.9938 45.6815L70.3699 54.178L64.3569 57.6747L60.3538 60.0112L68.932 64.9621L72.9352 62.6256L78.8828 59.1779L93.6374 50.5997L99.585 47.1357L103.588 44.8155L95.0099 39.8646Z" fill="#5F87ED"/>
<path d="M68.9323 65.7788C68.7853 65.7788 68.6546 65.7461 68.5239 65.6644L59.9456 60.7136C59.7005 60.5665 59.5371 60.3051 59.5371 60.011C59.5371 59.7169 59.6842 59.4554 59.9456 59.3084L94.6018 39.1617C94.8469 39.0147 95.1737 39.0147 95.4187 39.1617L103.997 44.1126C104.242 44.2597 104.405 44.5211 104.405 44.8152C104.405 45.1093 104.258 45.3707 103.997 45.5178L69.3408 65.6644C69.2101 65.7298 69.0794 65.7788 68.9323 65.7788ZM61.988 59.9946L68.9323 63.9978L101.955 44.7989L95.0103 40.7957L61.988 59.9946Z" fill="#0C5AE5"/>
<path d="M126.334 54.5537V43.6552L35.2407 31.2045V42.103L63.5735 58.4588L67.7237 60.8444L91.6775 74.684L126.334 54.5537Z" fill="white"/>
<path d="M91.6773 75.5009C91.5303 75.5009 91.3996 75.4683 91.2688 75.3866L34.8321 42.8055C34.587 42.6585 34.4236 42.397 34.4236 42.1029V31.2044C34.4236 30.9757 34.5216 30.7469 34.7014 30.5835C34.8811 30.4365 35.1098 30.3548 35.3549 30.3875L126.448 42.8382C126.856 42.8872 127.15 43.2467 127.15 43.6552V54.5373C127.15 54.8314 127.003 55.0928 126.742 55.2399L92.0858 75.3866C91.9714 75.4683 91.8244 75.5009 91.6773 75.5009ZM36.0575 41.6291L91.6773 73.7363L125.517 54.0798V44.3741L36.0575 32.1521V41.6291Z" fill="#0C5AE5"/>
<path d="M126.334 43.6553L102.38 29.832L93.8016 24.8812L69.8969 11.0742L35.2407 31.2046L63.5735 47.5768L67.7237 49.9623L91.6775 63.8019L126.334 43.6553Z" fill="white"/>
<path d="M91.6773 64.6188C91.5303 64.6188 91.3996 64.5861 91.2688 64.5044L34.8321 31.9234C34.587 31.7764 34.4236 31.4986 34.4236 31.2208C34.4236 30.9267 34.5706 30.6653 34.8321 30.5182L69.4882 10.3716C69.7333 10.2245 70.0601 10.2245 70.3052 10.3716L126.742 42.9526C126.987 43.0997 127.15 43.3611 127.15 43.6552C127.15 43.9493 127.003 44.2107 126.742 44.3578L92.0858 64.5044C91.9714 64.5861 91.8244 64.6188 91.6773 64.6188ZM36.8745 31.2045L91.6773 62.8542L124.7 43.6552L69.8967 12.0218L36.8745 31.2045Z" fill="#0C5AE5"/>
<path d="M59.145 45.0115V55.8936L67.7233 60.8445V49.9624L59.145 45.0115Z" fill="#5F87ED"/>
<path d="M67.7236 61.6614C67.5765 61.6614 67.4458 61.6287 67.3151 61.5471L58.7369 56.5962C58.4918 56.4491 58.3284 56.1877 58.3284 55.8936V45.0114C58.3284 44.7173 58.4918 44.4559 58.7369 44.3088C58.982 44.1618 59.3087 44.1618 59.5538 44.3088L68.1321 49.2597C68.3772 49.4068 68.5406 49.6682 68.5406 49.9623V60.8445C68.5406 61.1386 68.3772 61.4 68.1321 61.5471C68.0014 61.6287 67.8543 61.6614 67.7236 61.6614ZM59.9623 55.4197L66.9066 59.4229V50.4198L59.9623 46.4166V55.4197V55.4197Z" fill="#0C5AE5"/>
<path d="M91.6775 63.8019V74.684L126.334 54.5537V43.6552L91.6775 63.8019Z" fill="#D4DDFC"/>
<path d="M91.6778 75.5008C91.5308 75.5008 91.4 75.4682 91.2693 75.3865C91.0079 75.2394 90.8608 74.978 90.8608 74.6839V63.8017C90.8608 63.5076 91.0079 63.2462 91.2693 63.0991L125.925 42.9525C126.171 42.8054 126.481 42.8054 126.742 42.9525C127.004 43.0995 127.151 43.361 127.151 43.6551V54.5372C127.151 54.8313 127.004 55.0928 126.742 55.2398L92.0863 75.3865C91.9719 75.4682 91.8249 75.5008 91.6778 75.5008ZM92.4948 64.2756V73.2623L125.517 54.0797V45.093L92.4948 64.2756Z" fill="#0C5AE5"/>
<path d="M113.441 45.3873C111.268 44.1292 111.252 42.0867 113.408 40.8286L98.3597 32.136L74.2262 18.1983C72.0694 19.4565 68.54 19.4565 66.3669 18.1983L47.5601 29.1458C49.7332 30.404 49.7496 32.4464 47.5927 33.7046L71.7262 47.6422L86.775 56.3348C88.9318 55.0767 92.4611 55.0767 94.6343 56.3348C94.8303 56.4492 95.0101 56.5636 95.1735 56.6943L114.062 45.7141C113.833 45.6161 113.637 45.5017 113.441 45.3873Z" fill="#D4DDFC"/>
<path d="M95.1736 57.4947C94.9938 57.4947 94.8141 57.4294 94.6671 57.3313C94.5363 57.2333 94.3893 57.1353 94.2259 57.0372C92.3142 55.9425 89.0953 55.9261 87.1835 57.0372C86.9385 57.1843 86.6117 57.1843 86.3666 57.0372L47.1843 34.407C46.9393 34.2599 46.7759 33.9985 46.7759 33.7044C46.7759 33.4102 46.9229 33.1488 47.1843 33.0018C47.9523 32.5606 48.3935 31.9887 48.3935 31.4332C48.3935 30.8776 47.936 30.3057 47.168 29.8482C46.9229 29.7012 46.7595 29.4397 46.7595 29.1456C46.7595 28.8515 46.9066 28.5901 47.168 28.443L65.9748 17.5119C66.2199 17.3648 66.5467 17.3648 66.7918 17.5119C68.7035 18.623 71.9388 18.623 73.8341 17.5119C74.0792 17.3648 74.406 17.3648 74.6511 17.5119L113.833 40.1258C114.078 40.2728 114.242 40.5343 114.242 40.8284C114.242 41.1225 114.095 41.3839 113.833 41.531C113.065 41.9722 112.624 42.544 112.624 43.0996C112.624 43.6551 113.082 44.227 113.85 44.6845C114.013 44.7826 114.193 44.8643 114.373 44.946C114.65 45.0603 114.846 45.3381 114.863 45.6486C114.879 45.959 114.732 46.2531 114.454 46.4002L95.5657 57.3803C95.4514 57.462 95.3043 57.4947 95.1736 57.4947ZM90.6965 54.5536C92.2651 54.5536 93.8174 54.9131 95.0429 55.6157C95.0919 55.6484 95.1572 55.681 95.2063 55.7137L112.428 45.6976C111.48 44.9786 110.974 44.08 110.974 43.0996C110.974 42.299 111.317 41.5637 111.938 40.9264L74.2099 19.1458C71.9224 20.2569 68.6872 20.2569 66.3833 19.1458L49.0307 29.2437C49.668 29.8809 50.0111 30.6325 50.0111 31.4332C50.0111 32.2338 49.6843 32.9691 49.0471 33.6063L86.7914 55.3869C87.9352 54.8314 89.3077 54.5536 90.6965 54.5536Z" fill="#0C5AE5"/>
<path d="M90.2882 31.9069C86.3177 29.6193 78.8505 30.2402 73.5728 33.2957C68.3115 36.3512 67.2494 40.6976 71.2199 42.9851C75.1741 45.2726 82.6576 44.6517 87.9353 41.5799C93.1966 38.5244 94.2587 34.1944 90.2882 31.9069Z" fill="white"/>
<path d="M77.3962 45.1748C74.8636 45.1748 72.527 44.701 70.8114 43.7043C68.9977 42.6586 68.001 41.1226 68.001 39.407C68.001 37.0051 69.88 34.5215 73.1643 32.6097C78.7361 29.3745 86.432 28.7536 90.6966 31.2209C92.5103 32.2666 93.507 33.7862 93.507 35.5182C93.507 37.9201 91.628 40.4037 88.3437 42.3154C85.1085 44.1781 81.0563 45.1748 77.3962 45.1748ZM84.0954 31.3353C80.7622 31.3353 77.0041 32.2666 73.9812 34.0149C71.2525 35.5999 69.6349 37.6096 69.6349 39.3906C69.6349 40.8285 70.7133 41.7599 71.6284 42.2827C75.3538 44.4396 82.4941 43.8023 87.5267 40.8775C90.2554 39.2926 91.873 37.2828 91.873 35.5018C91.873 34.064 90.7946 33.1326 89.8796 32.6097C88.3927 31.7437 86.3339 31.3353 84.0954 31.3353Z" fill="#0C5AE5"/>
<path d="M93.8012 24.8808L89.798 27.201L83.785 30.6977L69.1612 39.1943L63.1482 42.6909L59.145 45.0111L67.7233 49.962L71.7265 47.6418L77.6577 44.1778L92.4287 35.5996L98.3599 32.1519L102.379 29.8317L93.8012 24.8808Z" fill="#5F87ED"/>
<path d="M67.7236 50.7791C67.5765 50.7791 67.4458 50.7464 67.3151 50.6647L58.7369 45.7138C58.4918 45.5668 58.3284 45.3054 58.3284 45.0112C58.3284 44.7171 58.4754 44.4557 58.7369 44.3086L93.393 24.162C93.6381 24.0149 93.9649 24.0149 94.21 24.162L102.788 29.1129C103.033 29.2599 103.197 29.5214 103.197 29.8155C103.197 30.1096 103.05 30.371 102.788 30.5181L68.1321 50.6647C68.0014 50.7464 67.8543 50.7791 67.7236 50.7791ZM60.7793 45.0112L67.7236 49.0144L100.746 29.8155L93.8015 25.8123L60.7793 45.0112Z" fill="#0C5AE5"/>
<path d="M134.29 44.2925V33.394L43.1804 20.9597V31.8418L71.5295 48.1977L75.6634 50.5832L99.6335 64.4228L134.29 44.2925Z" fill="white"/>
<path d="M99.6339 65.2396C99.4868 65.2396 99.3561 65.2069 99.2254 65.1252L42.7723 32.5442C42.5272 32.3972 42.3638 32.1357 42.3638 31.8416V20.9595C42.3638 20.7307 42.4618 20.502 42.6415 20.3386C42.8213 20.1915 43.05 20.1098 43.2951 20.1425L134.388 32.5932C134.797 32.6422 135.091 33.0017 135.091 33.4102V44.2923C135.091 44.5864 134.944 44.8479 134.682 44.9949L100.042 65.1252C99.9116 65.2069 99.7646 65.2396 99.6339 65.2396ZM43.9977 31.3678L99.6175 63.475L133.457 43.8021V34.0965L43.9977 21.8908V31.3678Z" fill="#0C5AE5"/>
<path d="M134.29 33.3939L110.32 19.5707L101.741 14.6198L77.8366 0.812897L43.1804 20.9595L71.5295 37.3154L75.6634 39.701L99.6335 53.5406L134.29 33.3939Z" fill="white"/>
<path d="M99.6346 54.3576C99.4875 54.3576 99.3568 54.3249 99.2261 54.2432L42.773 21.6621C42.5279 21.5151 42.3645 21.2373 42.3645 20.9595C42.3645 20.6654 42.5116 20.404 42.773 20.2569L77.4292 0.110292C77.6742 -0.036764 78.001 -0.036764 78.2461 0.110292L134.683 32.6913C134.928 32.8384 135.091 33.0998 135.091 33.3939C135.091 33.688 134.944 33.9495 134.683 34.0965L100.043 54.2432C99.9124 54.3249 99.7653 54.3576 99.6346 54.3576ZM44.8154 20.9432L99.6182 52.5929L132.64 33.3939L77.8376 1.76059L44.8154 20.9432Z" fill="#0C5AE5"/>
<path d="M67.0854 34.7502V45.6323L75.6637 50.5832V39.7011L67.0854 34.7502Z" fill="#5F87ED"/>
<path d="M75.6635 51.4001C75.5165 51.4001 75.3858 51.3674 75.2551 51.2857L66.6768 46.3348C66.4317 46.1878 66.2683 45.9263 66.2683 45.6322V34.7501C66.2683 34.456 66.4317 34.1945 66.6768 34.0475C66.9219 33.9004 67.2487 33.9004 67.4938 34.0475L76.072 38.9984C76.3171 39.1454 76.4805 39.4069 76.4805 39.701V50.5831C76.4805 50.8772 76.3171 51.1386 76.072 51.2857C75.9413 51.3674 75.8106 51.4001 75.6635 51.4001ZM67.9023 45.1584L74.8466 49.1616V40.1585L67.9023 36.1553V45.1584Z" fill="#0C5AE5"/>
<path d="M99.6333 53.5405V64.4227L134.289 44.2924V33.3939L99.6333 53.5405Z" fill="#D4DDFC"/>
<path d="M99.6336 65.2396C99.4866 65.2396 99.3559 65.2069 99.2251 65.1252C98.9637 64.9782 98.8167 64.7168 98.8167 64.4226V53.5405C98.8167 53.2464 98.9637 52.985 99.2251 52.8379L133.881 32.6913C134.126 32.5442 134.437 32.5442 134.698 32.6913C134.96 32.8383 135.107 33.0997 135.107 33.3939V44.276C135.107 44.5701 134.96 44.8315 134.698 44.9786L100.042 65.1252C99.9114 65.2069 99.7643 65.2396 99.6336 65.2396ZM100.451 54.0144V63.0174L133.473 43.8185V34.8317L100.451 54.0144Z" fill="#0C5AE5"/>
<path d="M121.382 35.1261C119.209 33.8679 119.192 31.8255 121.349 30.5674L106.317 21.8911L82.1832 7.95343C80.0264 9.21157 76.4971 9.21157 74.3239 7.95343L55.5171 18.8846C57.6902 20.1427 57.7066 22.1852 55.5498 23.4433L79.6833 37.3809L94.732 46.0736C96.8888 44.8154 100.418 44.8154 102.591 46.0736C102.787 46.188 102.967 46.3023 103.131 46.433L122.019 35.4529C121.79 35.3548 121.578 35.2405 121.382 35.1261Z" fill="#D4DDFC"/>
<path d="M103.114 47.2335C102.934 47.2335 102.754 47.1682 102.607 47.0538C102.477 46.9557 102.329 46.8577 102.166 46.7597C100.254 45.6486 97.0191 45.6486 95.1237 46.7597C94.8786 46.9067 94.5519 46.9067 94.3068 46.7597L55.1245 24.1458C54.8794 23.9987 54.716 23.7373 54.716 23.4432C54.716 23.149 54.8631 22.8876 55.1245 22.7406C55.8925 22.2994 56.3337 21.7275 56.3337 21.172C56.3337 20.6164 55.8762 20.0445 55.1082 19.587C54.8631 19.44 54.6997 19.1785 54.6997 18.8844C54.6997 18.5903 54.8468 18.3289 55.1082 18.1818L73.915 7.25067C74.1601 7.10362 74.4869 7.10362 74.732 7.25067C76.6437 8.36176 79.8789 8.36176 81.7743 7.25067C82.0194 7.10362 82.3462 7.10362 82.5913 7.25067L121.774 29.8646C122.019 30.0116 122.182 30.2731 122.182 30.5672C122.182 30.8613 122.035 31.1227 121.774 31.2698C121.006 31.711 120.564 32.2828 120.564 32.822C120.564 33.3776 121.022 33.9495 121.79 34.407C121.953 34.505 122.133 34.5867 122.329 34.6684C122.607 34.7991 122.803 35.0606 122.819 35.371C122.836 35.6815 122.689 35.9756 122.411 36.1226L103.522 47.1028C103.392 47.2008 103.261 47.2335 103.114 47.2335ZM98.6367 44.2924C100.205 44.2924 101.758 44.6519 102.983 45.3545C103.032 45.3872 103.097 45.4198 103.146 45.4525L120.368 35.4364C119.421 34.7174 118.914 33.8188 118.914 32.8384C118.914 32.0378 119.241 31.3025 119.878 30.6652L82.1665 8.88463C79.8789 9.99572 76.6437 9.99572 74.3398 8.88463L56.9872 18.9661C57.6245 19.6034 57.9676 20.355 57.9676 21.1556C57.9676 21.9563 57.6245 22.6915 57.0036 23.3288L94.7316 45.1094C95.8754 44.5702 97.2479 44.2924 98.6367 44.2924Z" fill="#0C5AE5"/>
<path d="M98.2449 21.646C94.2744 19.3584 86.8073 19.9793 81.5296 23.0348C76.2683 26.0903 75.2062 30.4366 79.1767 32.7242C83.1309 35.0117 90.6144 34.3908 95.8921 31.319C101.153 28.2635 102.199 23.9335 98.2449 21.646Z" fill="white"/>
<path d="M85.3857 34.9462C82.8531 34.9462 80.5165 34.456 78.7682 33.443C76.9545 32.3972 75.9578 30.8613 75.9578 29.1457C75.9578 26.7438 77.8368 24.2601 81.1211 22.3484C86.6928 19.1132 94.4051 18.4923 98.6534 20.9596C100.467 22.0053 101.464 23.5249 101.464 25.2569C101.464 27.6588 99.5847 30.1424 96.3005 32.0541C93.0162 33.9495 88.9967 34.9462 85.3857 34.9462ZM92.0522 21.0739C88.7189 21.0739 84.9608 22.0053 81.938 23.7536C79.2093 25.3385 77.5754 27.3483 77.5917 29.1457C77.5917 30.5835 78.6701 31.5149 79.5851 32.0378C83.3106 34.1946 90.4509 33.5573 95.4835 30.6326C98.2122 29.0476 99.8298 27.0379 99.8298 25.2569C99.8298 23.819 98.7514 22.8876 97.8364 22.3648C96.3332 21.4988 94.2907 21.0739 92.0522 21.0739Z" fill="#0C5AE5"/>
<path d="M101.742 14.6196L97.7384 16.9398L91.7255 20.4365L77.1016 28.9331L71.0886 32.4297L67.0854 34.7499L75.6637 39.7008L79.6669 37.3806L85.6145 33.9166L100.369 25.3384L106.317 21.8907L110.32 19.5705L101.742 14.6196Z" fill="#5F87ED"/>
<path d="M75.6635 40.518C75.5165 40.518 75.3858 40.4853 75.2551 40.4036L66.6768 35.4527C66.4317 35.3057 66.2683 35.0442 66.2683 34.7501C66.2683 34.456 66.4154 34.1946 66.6768 34.0475L101.333 13.9009C101.578 13.7538 101.905 13.7538 102.15 13.9009L110.728 18.8518C110.973 18.9988 111.137 19.2602 111.137 19.5544C111.137 19.8485 110.99 20.1099 110.728 20.257L76.072 40.4036C75.9413 40.4853 75.8106 40.518 75.6635 40.518ZM68.7192 34.7501L75.6635 38.7533L108.686 19.5544L101.741 15.5512L68.7192 34.7501Z" fill="#0C5AE5"/>
</svg>
